<svg width="50" height="50" viewBox="0 0 50 50" fill="none" xmlns="http://www.w3.org/2000/svg">
<path fill-rule="evenodd" clip-rule="evenodd" d="M25.0001 8.33332C22.5078 8.33454 20.0474 8.89471 17.8002 9.97258C15.5531 11.0505 13.5762 12.6186 12.0153 14.5616C10.4543 16.5045 9.34898 18.7728 8.78066 21.1995C8.21233 23.6262 8.19548 26.1494 8.73135 28.5834C9.26721 31.0175 10.3421 33.3003 11.877 35.264C13.4119 37.2276 15.3676 38.822 17.6002 39.9298C19.8328 41.0376 22.2854 41.6306 24.7775 41.6651C27.2696 41.6996 29.7377 41.1747 32.0001 40.1292C32.5015 39.8965 33.0748 39.8726 33.5938 40.0627C34.1129 40.2528 34.5352 40.6413 34.7678 41.1427C35.0004 41.6441 35.0243 42.2174 34.8342 42.7365C34.6442 43.2555 34.2557 43.6778 33.7542 43.9104C31.011 45.1811 28.0233 45.8373 25.0001 45.8333C13.4938 45.8333 4.16675 36.5062 4.16675 25C4.16675 13.4937 13.4938 4.16666 25.0001 4.16666C36.5063 4.16666 45.8334 13.4937 45.8334 25V25.0396C45.7459 29.6021 44.2918 32.675 42.1522 34.5812C40.0605 36.4437 37.5834 36.9521 35.8542 36.9521C33.3709 36.9521 31.1897 35.6604 29.9417 33.7146C25.6167 37.5375 19.3792 38.3792 15.5292 34.1C11.5167 29.6417 12.6355 22.1979 16.9167 17.4417C21.0584 12.8396 28.5897 11.0625 32.9126 16.3875C33.1001 15.8836 33.4752 15.4718 33.9593 15.238C34.4435 15.0043 34.9992 14.9668 35.5104 15.1333C36.0216 15.2999 36.4486 15.6576 36.7021 16.1316C36.9557 16.6057 37.0162 17.1594 36.8709 17.6771C35.6376 22.0021 34.1834 26.2875 33.0938 30.65C33.2529 31.2612 33.6101 31.8023 34.1096 32.1888C34.6091 32.5752 35.2227 32.785 35.8542 32.7854C36.8542 32.7854 38.2459 32.4812 39.3813 31.4708C40.4647 30.5062 41.5938 28.65 41.6668 24.9812C41.6618 20.5642 39.9036 16.3298 36.7786 13.2082C33.6535 10.0867 29.4171 8.33332 25.0001 8.33332ZM29.9022 26.9042C30.048 26.4042 30.4292 25.0687 30.8751 23.5125C31.3605 21.8042 30.7293 20.1667 29.4001 18.6875C27.4834 16.5604 23.3751 16.4937 20.0147 20.2292C16.6334 23.9833 16.5105 28.9604 18.6272 31.3125C20.5417 33.4396 24.6501 33.5062 28.0126 29.7708C28.7897 28.9083 29.5209 28.0125 29.9022 26.9042Z" fill="black"/>
</svg>
