<svg width="195" height="52" viewBox="0 0 195 52" fill="none" xmlns="http://www.w3.org/2000/svg">
<rect x="0.5" y="0.5" width="194" height="51" rx="25.5" fill="#1B1A17" stroke="#1B1A17"/>
<path d="M68.672 22.48C68.368 21.92 67.928 21.496 67.352 21.208C66.792 20.904 66.128 20.752 65.36 20.752C64.032 20.752 62.968 21.192 62.168 22.072C61.368 22.936 60.968 24.096 60.968 25.552C60.968 27.104 61.384 28.32 62.216 29.2C63.064 30.064 64.224 30.496 65.696 30.496C66.704 30.496 67.552 30.24 68.24 29.728C68.944 29.216 69.456 28.48 69.776 27.52H64.568V24.496H73.496V28.312C73.192 29.336 72.672 30.288 71.936 31.168C71.216 32.048 70.296 32.76 69.176 33.304C68.056 33.848 66.792 34.12 65.384 34.12C63.72 34.12 62.232 33.76 60.92 33.04C59.624 32.304 58.608 31.288 57.872 29.992C57.152 28.696 56.792 27.216 56.792 25.552C56.792 23.888 57.152 22.408 57.872 21.112C58.608 19.8 59.624 18.784 60.92 18.064C62.216 17.328 63.696 16.96 65.36 16.96C67.376 16.96 69.072 17.448 70.448 18.424C71.84 19.4 72.76 20.752 73.208 22.48H68.672ZM77.8333 19.216C77.1133 19.216 76.5213 19.008 76.0573 18.592C75.6093 18.16 75.3853 17.632 75.3853 17.008C75.3853 16.368 75.6093 15.84 76.0573 15.424C76.5213 14.992 77.1133 14.776 77.8333 14.776C78.5373 14.776 79.1133 14.992 79.5613 15.424C80.0253 15.84 80.2573 16.368 80.2573 17.008C80.2573 17.632 80.0253 18.16 79.5613 18.592C79.1133 19.008 78.5373 19.216 77.8333 19.216ZM79.8733 20.608V34H75.7693V20.608H79.8733ZM90.3114 30.52V34H88.2234C86.7354 34 85.5754 33.64 84.7434 32.92C83.9114 32.184 83.4954 30.992 83.4954 29.344V24.016H81.8634V20.608H83.4954V17.344H87.5994V20.608H90.2874V24.016H87.5994V29.392C87.5994 29.792 87.6954 30.08 87.8874 30.256C88.0794 30.432 88.3994 30.52 88.8474 30.52H90.3114ZM100.829 20.464C102.365 20.464 103.597 20.976 104.525 22C105.453 23.008 105.917 24.4 105.917 26.176V34H101.837V26.728C101.837 25.832 101.605 25.136 101.141 24.64C100.677 24.144 100.053 23.896 99.2694 23.896C98.4854 23.896 97.8614 24.144 97.3974 24.64C96.9334 25.136 96.7014 25.832 96.7014 26.728V34H92.5974V16.24H96.7014V22.408C97.1174 21.816 97.6854 21.344 98.4054 20.992C99.1254 20.64 99.9334 20.464 100.829 20.464ZM121.993 20.608V34H117.889V32.176C117.473 32.768 116.905 33.248 116.185 33.616C115.481 33.968 114.697 34.144 113.833 34.144C112.809 34.144 111.905 33.92 111.121 33.472C110.337 33.008 109.729 32.344 109.297 31.48C108.865 30.616 108.649 29.6 108.649 28.432V20.608H112.729V27.88C112.729 28.776 112.961 29.472 113.425 29.968C113.889 30.464 114.513 30.712 115.297 30.712C116.097 30.712 116.729 30.464 117.193 29.968C117.657 29.472 117.889 28.776 117.889 27.88V20.608H121.993ZM129.045 22.504C129.429 21.88 129.981 21.376 130.701 20.992C131.421 20.608 132.245 20.416 133.173 20.416C134.277 20.416 135.277 20.696 136.173 21.256C137.069 21.816 137.773 22.616 138.285 23.656C138.813 24.696 139.077 25.904 139.077 27.28C139.077 28.656 138.813 29.872 138.285 30.928C137.773 31.968 137.069 32.776 136.173 33.352C135.277 33.912 134.277 34.192 133.173 34.192C132.229 34.192 131.405 34.008 130.701 33.64C129.997 33.256 129.445 32.752 129.045 32.128V34H124.941V16.24H129.045V22.504ZM134.901 27.28C134.901 26.256 134.613 25.456 134.037 24.88C133.477 24.288 132.781 23.992 131.949 23.992C131.133 23.992 130.437 24.288 129.861 24.88C129.301 25.472 129.021 26.28 129.021 27.304C129.021 28.328 129.301 29.136 129.861 29.728C130.437 30.32 131.133 30.616 131.949 30.616C132.765 30.616 133.461 30.32 134.037 29.728C134.613 29.12 134.901 28.304 134.901 27.28Z" fill="#FF8303"/>
</svg>
