<svg width="195" height="52" viewBox="0 0 195 52" fill="none" xmlns="http://www.w3.org/2000/svg">
<rect x="0.5" y="0.5" width="194" height="51" rx="25.5" fill="#FF8303" stroke="black"/>
<path d="M73.304 17.152L67.328 34H62.192L56.216 17.152H60.584L64.76 29.872L68.96 17.152H73.304ZM77.0833 19.216C76.3633 19.216 75.7713 19.008 75.3073 18.592C74.8593 18.16 74.6353 17.632 74.6353 17.008C74.6353 16.368 74.8593 15.84 75.3073 15.424C75.7713 14.992 76.3633 14.776 77.0833 14.776C77.7873 14.776 78.3633 14.992 78.8113 15.424C79.2753 15.84 79.5073 16.368 79.5073 17.008C79.5073 17.632 79.2753 18.16 78.8113 18.592C78.3633 19.008 77.7873 19.216 77.0833 19.216ZM79.1233 20.608V34H75.0193V20.608H79.1233ZM81.2814 27.28C81.2814 25.904 81.5374 24.696 82.0494 23.656C82.5774 22.616 83.2894 21.816 84.1854 21.256C85.0814 20.696 86.0814 20.416 87.1854 20.416C88.0654 20.416 88.8654 20.6 89.5854 20.968C90.3214 21.336 90.8974 21.832 91.3134 22.456V16.24H95.4174V34H91.3134V32.08C90.9294 32.72 90.3774 33.232 89.6574 33.616C88.9534 34 88.1294 34.192 87.1854 34.192C86.0814 34.192 85.0814 33.912 84.1854 33.352C83.2894 32.776 82.5774 31.968 82.0494 30.928C81.5374 29.872 81.2814 28.656 81.2814 27.28ZM91.3134 27.304C91.3134 26.28 91.0254 25.472 90.4494 24.88C89.8894 24.288 89.2014 23.992 88.3854 23.992C87.5694 23.992 86.8734 24.288 86.2974 24.88C85.7374 25.456 85.4574 26.256 85.4574 27.28C85.4574 28.304 85.7374 29.12 86.2974 29.728C86.8734 30.32 87.5694 30.616 88.3854 30.616C89.2014 30.616 89.8894 30.32 90.4494 29.728C91.0254 29.136 91.3134 28.328 91.3134 27.304ZM111.01 27.088C111.01 27.472 110.986 27.872 110.938 28.288H101.65C101.714 29.12 101.978 29.76 102.442 30.208C102.922 30.64 103.506 30.856 104.194 30.856C105.218 30.856 105.93 30.424 106.33 29.56H110.698C110.474 30.44 110.066 31.232 109.474 31.936C108.898 32.64 108.17 33.192 107.29 33.592C106.41 33.992 105.426 34.192 104.338 34.192C103.026 34.192 101.858 33.912 100.834 33.352C99.8104 32.792 99.0104 31.992 98.4344 30.952C97.8584 29.912 97.5704 28.696 97.5704 27.304C97.5704 25.912 97.8504 24.696 98.4104 23.656C98.9864 22.616 99.7864 21.816 100.81 21.256C101.834 20.696 103.01 20.416 104.338 20.416C105.634 20.416 106.786 20.688 107.794 21.232C108.802 21.776 109.586 22.552 110.146 23.56C110.722 24.568 111.01 25.744 111.01 27.088ZM106.81 26.008C106.81 25.304 106.57 24.744 106.09 24.328C105.61 23.912 105.01 23.704 104.29 23.704C103.602 23.704 103.018 23.904 102.538 24.304C102.074 24.704 101.786 25.272 101.674 26.008H106.81ZM119.272 34.192C117.96 34.192 116.776 33.912 115.72 33.352C114.68 32.792 113.856 31.992 113.248 30.952C112.656 29.912 112.36 28.696 112.36 27.304C112.36 25.928 112.664 24.72 113.271 23.68C113.88 22.624 114.712 21.816 115.768 21.256C116.824 20.696 118.008 20.416 119.32 20.416C120.632 20.416 121.816 20.696 122.872 21.256C123.928 21.816 124.76 22.624 125.368 23.68C125.976 24.72 126.28 25.928 126.28 27.304C126.28 28.68 125.968 29.896 125.344 30.952C124.736 31.992 123.896 32.792 122.824 33.352C121.768 33.912 120.584 34.192 119.272 34.192ZM119.272 30.64C120.056 30.64 120.72 30.352 121.264 29.776C121.824 29.2 122.104 28.376 122.104 27.304C122.104 26.232 121.832 25.408 121.288 24.832C120.76 24.256 120.104 23.968 119.32 23.968C118.52 23.968 117.856 24.256 117.328 24.832C116.8 25.392 116.536 26.216 116.536 27.304C116.536 28.376 116.792 29.2 117.304 29.776C117.832 30.352 118.488 30.64 119.272 30.64Z" fill="#1B1A17"/>
</svg>
