<svg width="324" height="243" viewBox="0 0 324 243" fill="none" xmlns="http://www.w3.org/2000/svg">
<path d="M29.388 14.728V40H23.232V14.728H29.388ZM35.2532 14.728H41.5532L37.5212 24.376H33.3812L35.2532 14.728ZM70.8015 19.696C73.2975 19.696 75.2775 20.452 76.7415 21.964C78.2295 23.476 78.9735 25.576 78.9735 28.264V40H72.8535V29.092C72.8535 27.796 72.5055 26.8 71.8095 26.104C71.1375 25.384 70.2015 25.024 69.0015 25.024C67.8015 25.024 66.8535 25.384 66.1575 26.104C65.4855 26.8 65.1495 27.796 65.1495 29.092V40H59.0295V29.092C59.0295 27.796 58.6815 26.8 57.9855 26.104C57.3135 25.384 56.3775 25.024 55.1775 25.024C53.9775 25.024 53.0295 25.384 52.3335 26.104C51.6615 26.8 51.3255 27.796 51.3255 29.092V40H45.1695V19.912H51.3255V22.432C51.9495 21.592 52.7655 20.932 53.7735 20.452C54.7815 19.948 55.9215 19.696 57.1935 19.696C58.7055 19.696 60.0495 20.02 61.2255 20.668C62.4255 21.316 63.3615 22.24 64.0335 23.44C64.7295 22.336 65.6775 21.436 66.8775 20.74C68.0775 20.044 69.3855 19.696 70.8015 19.696ZM112.796 14.728V40H106.64V29.596H97.0638V40H90.9078V14.728H97.0638V24.628H106.64V14.728H112.796ZM136.176 29.632C136.176 30.208 136.14 30.808 136.068 31.432H122.136C122.232 32.68 122.628 33.64 123.324 34.312C124.044 34.96 124.92 35.284 125.952 35.284C127.488 35.284 128.556 34.636 129.156 33.34H135.708C135.372 34.66 134.76 35.848 133.872 36.904C133.008 37.96 131.916 38.788 130.596 39.388C129.276 39.988 127.8 40.288 126.168 40.288C124.2 40.288 122.448 39.868 120.912 39.028C119.376 38.188 118.176 36.988 117.312 35.428C116.448 33.868 116.016 32.044 116.016 29.956C116.016 27.868 116.436 26.044 117.276 24.484C118.14 22.924 119.34 21.724 120.876 20.884C122.412 20.044 124.176 19.624 126.168 19.624C128.112 19.624 129.84 20.032 131.352 20.848C132.864 21.664 134.04 22.828 134.88 24.34C135.744 25.852 136.176 27.616 136.176 29.632ZM129.876 28.012C129.876 26.956 129.516 26.116 128.796 25.492C128.076 24.868 127.176 24.556 126.096 24.556C125.064 24.556 124.188 24.856 123.468 25.456C122.772 26.056 122.34 26.908 122.172 28.012H129.876ZM151.663 19.696C154.015 19.696 155.887 20.464 157.279 22C158.695 23.512 159.403 25.6 159.403 28.264V40H153.283V29.092C153.283 27.748 152.935 26.704 152.239 25.96C151.543 25.216 150.607 24.844 149.431 24.844C148.255 24.844 147.319 25.216 146.623 25.96C145.927 26.704 145.579 27.748 145.579 29.092V40H139.423V19.912H145.579V22.576C146.203 21.688 147.043 20.992 148.099 20.488C149.155 19.96 150.343 19.696 151.663 19.696ZM169.837 23.26C170.557 22.156 171.457 21.292 172.537 20.668C173.617 20.02 174.817 19.696 176.137 19.696V26.212H174.445C172.909 26.212 171.757 26.548 170.989 27.22C170.221 27.868 169.837 29.02 169.837 30.676V40H163.681V19.912H169.837V23.26ZM199.6 19.912L187 49.54H180.376L184.984 39.316L176.812 19.912H183.688L188.332 32.476L192.94 19.912H199.6ZM224.107 40L215.611 28.84V40H209.455V14.728H215.611V25.816L224.035 14.728H231.271L221.479 27.112L231.631 40H224.107ZM253.492 29.632C253.492 30.208 253.456 30.808 253.384 31.432H239.452C239.548 32.68 239.944 33.64 240.64 34.312C241.36 34.96 242.236 35.284 243.268 35.284C244.804 35.284 245.872 34.636 246.472 33.34H253.024C252.688 34.66 252.076 35.848 251.188 36.904C250.324 37.96 249.232 38.788 247.912 39.388C246.592 39.988 245.116 40.288 243.484 40.288C241.516 40.288 239.764 39.868 238.228 39.028C236.692 38.188 235.492 36.988 234.628 35.428C233.764 33.868 233.332 32.044 233.332 29.956C233.332 27.868 233.752 26.044 234.592 24.484C235.456 22.924 236.656 21.724 238.192 20.884C239.728 20.044 241.492 19.624 243.484 19.624C245.428 19.624 247.156 20.032 248.668 20.848C250.18 21.664 251.356 22.828 252.196 24.34C253.06 25.852 253.492 27.616 253.492 29.632ZM247.192 28.012C247.192 26.956 246.832 26.116 246.112 25.492C245.392 24.868 244.492 24.556 243.412 24.556C242.38 24.556 241.504 24.856 240.784 25.456C240.088 26.056 239.656 26.908 239.488 28.012H247.192ZM275.676 29.632C275.676 30.208 275.64 30.808 275.568 31.432H261.636C261.732 32.68 262.128 33.64 262.824 34.312C263.544 34.96 264.42 35.284 265.452 35.284C266.988 35.284 268.056 34.636 268.656 33.34H275.208C274.872 34.66 274.26 35.848 273.372 36.904C272.508 37.96 271.416 38.788 270.096 39.388C268.776 39.988 267.3 40.288 265.668 40.288C263.7 40.288 261.948 39.868 260.412 39.028C258.876 38.188 257.676 36.988 256.812 35.428C255.948 33.868 255.516 32.044 255.516 29.956C255.516 27.868 255.936 26.044 256.776 24.484C257.64 22.924 258.84 21.724 260.376 20.884C261.912 20.044 263.676 19.624 265.668 19.624C267.612 19.624 269.34 20.032 270.852 20.848C272.364 21.664 273.54 22.828 274.38 24.34C275.244 25.852 275.676 27.616 275.676 29.632ZM269.376 28.012C269.376 26.956 269.016 26.116 268.296 25.492C267.576 24.868 266.676 24.556 265.596 24.556C264.564 24.556 263.688 24.856 262.968 25.456C262.272 26.056 261.84 26.908 261.672 28.012H269.376ZM291.163 19.696C293.515 19.696 295.387 20.464 296.779 22C298.195 23.512 298.903 25.6 298.903 28.264V40H292.783V29.092C292.783 27.748 292.435 26.704 291.739 25.96C291.043 25.216 290.107 24.844 288.931 24.844C287.755 24.844 286.819 25.216 286.123 25.96C285.427 26.704 285.079 27.748 285.079 29.092V40H278.923V19.912H285.079V22.576C285.703 21.688 286.543 20.992 287.599 20.488C288.655 19.96 289.843 19.696 291.163 19.696ZM322.117 29.632C322.117 30.208 322.081 30.808 322.009 31.432H308.077C308.173 32.68 308.569 33.64 309.265 34.312C309.985 34.96 310.861 35.284 311.893 35.284C313.429 35.284 314.497 34.636 315.097 33.34H321.649C321.313 34.66 320.701 35.848 319.813 36.904C318.949 37.96 317.857 38.788 316.537 39.388C315.217 39.988 313.741 40.288 312.109 40.288C310.141 40.288 308.389 39.868 306.853 39.028C305.317 38.188 304.117 36.988 303.253 35.428C302.389 33.868 301.957 32.044 301.957 29.956C301.957 27.868 302.377 26.044 303.217 24.484C304.081 22.924 305.281 21.724 306.817 20.884C308.353 20.044 310.117 19.624 312.109 19.624C314.053 19.624 315.781 20.032 317.293 20.848C318.805 21.664 319.981 22.828 320.821 24.34C321.685 25.852 322.117 27.616 322.117 29.632ZM315.817 28.012C315.817 26.956 315.457 26.116 314.737 25.492C314.017 24.868 313.117 24.556 312.037 24.556C311.005 24.556 310.129 24.856 309.409 25.456C308.713 26.056 308.281 26.908 308.113 28.012H315.817Z" fill="#1B1A17"/>
<path d="M23.5251 241.475C24.892 242.842 27.108 242.842 28.4749 241.475L50.7487 219.201C52.1156 217.834 52.1156 215.618 50.7487 214.251C49.3819 212.884 47.1658 212.884 45.799 214.251L26 234.05L6.20101 214.251C4.83417 212.884 2.6181 212.884 1.25126 214.251C-0.115572 215.618 -0.115572 217.834 1.25126 219.201L23.5251 241.475ZM22.5 15L22.5 239L29.5 239L29.5 15L22.5 15Z" fill="#1B1A17"/>
</svg>
