<svg width="100" height="132" viewBox="0 0 100 132" fill="none" xmlns="http://www.w3.org/2000/svg">
<path fill-rule="evenodd" clip-rule="evenodd" d="M76.0936 0.943812C84.4804 2.48063 92.9001 6.257 96.9785 14.0265C101.182 22.0389 100.742 29.8281 97.2478 36.3891C93.9443 42.589 88.1845 47.2257 82.3919 50.3387C76.5467 53.478 69.9594 55.4483 64.1865 55.8358C61.3165 56.0328 58.2954 55.849 55.5436 54.9623C52.7852 54.0691 49.7444 52.2565 48.0565 48.8413C47.2972 47.3298 47.1505 45.5836 47.6467 43.9665C48.143 42.3495 49.244 40.9862 50.7205 40.1608C52.1969 39.3354 53.9349 39.1115 55.5723 39.5357C57.2098 39.9599 58.6204 40.9995 59.5104 42.4379C59.5322 42.4468 59.5541 42.4556 59.5761 42.4642C60.2328 42.6743 61.461 42.8582 63.313 42.7269C66.9909 42.4839 71.7721 41.131 76.1724 38.7666C80.6187 36.3826 83.9878 33.3418 85.656 30.209C87.1337 27.4441 87.5081 24.2457 85.3539 20.1343C84.0404 17.6255 80.507 15.1036 73.7292 13.8623C67.1748 12.6604 58.8536 12.9428 50.3157 14.7161C41.7976 16.4893 33.483 19.6615 26.8891 23.891C20.2296 28.1599 15.8884 33.1251 14.2202 38.2741C12.4207 43.8368 13.0577 47.7577 14.6799 50.9758C16.4663 54.5026 19.7239 57.7733 24.2227 61.2738C26.4031 62.9682 28.7149 64.6036 31.1515 66.3308L31.2828 66.4228C33.7194 68.1435 36.2939 69.9627 38.6911 71.8608C40.7205 73.4567 42.7827 75.2299 44.6807 77.2265C53.1726 75.5846 60.5284 75.7619 66.564 78.5203C74.3269 82.0734 78.2149 89.0744 80.0473 96.995C80.2672 97.844 80.3148 98.7285 80.1874 99.5963C80.0599 100.464 79.7599 101.298 79.3051 102.047C78.8503 102.797 78.2499 103.449 77.5393 103.963C76.8287 104.477 76.0223 104.844 75.1677 105.041C74.3132 105.238 73.4277 105.263 72.5636 105.112C71.6995 104.962 70.8743 104.64 70.1366 104.165C69.3989 103.691 68.7638 103.074 68.2686 102.35C67.7735 101.626 67.4283 100.81 67.2536 99.9504C65.9401 94.2628 63.7925 91.7015 61.0997 90.4668C59.1295 89.567 56.174 89.0482 51.7869 89.4488C55.8325 103.668 48.7658 116.547 40.1228 123.843C35.4598 127.777 29.7657 130.641 24.0585 131.206C18.1017 131.803 11.7311 129.8 7.98756 123.581C4.69062 118.084 4.66435 112.238 6.38506 107.03C8.0401 102.026 11.3108 97.5204 14.8967 93.79C19.4565 89.123 24.698 85.1747 30.4422 82.0799C28.2378 80.3796 25.991 78.735 23.7038 77.1477L23.4674 76.9769C20.9904 75.2553 18.5532 73.4772 16.1577 71.644C11.232 67.802 6.07639 63.0799 2.95678 56.8932C-0.327023 50.3913 -1.07573 42.8779 1.72863 34.2218C4.66435 25.1454 11.6786 18.0393 19.7961 12.8312C27.9793 7.59022 37.857 3.89266 47.6427 1.86328C57.4022 -0.172681 67.4769 -0.632412 76.0936 0.943812ZM38.9866 92.4962C33.5348 95.066 28.5843 98.5865 24.3672 102.893C21.5431 105.828 19.6713 108.685 18.8504 111.161C18.1017 113.434 18.2724 115.187 19.2444 116.816C19.7895 117.716 20.6236 118.353 22.7581 118.136C25.1553 117.9 28.4456 116.514 31.6572 113.801C37.7979 108.626 41.5152 100.601 38.9866 92.4962ZM59.2805 42.346H59.2937H59.2805Z" fill="#FF8303"/>
</svg>
