<svg width="100" height="100" viewBox="0 0 100 100" fill="none" xmlns="http://www.w3.org/2000/svg">
<path fill-rule="evenodd" clip-rule="evenodd" d="M8.33337 20.8334C8.33337 17.5182 9.65034 14.3387 11.9945 11.9945C14.3387 9.65034 17.5182 8.33337 20.8334 8.33337H79.1667C82.4819 8.33337 85.6613 9.65034 88.0055 11.9945C90.3498 14.3387 91.6667 17.5182 91.6667 20.8334V79.1667C91.6667 82.4819 90.3498 85.6613 88.0055 88.0055C85.6613 90.3498 82.4819 91.6667 79.1667 91.6667H20.8334C17.5182 91.6667 14.3387 90.3498 11.9945 88.0055C9.65034 85.6613 8.33337 82.4819 8.33337 79.1667V20.8334ZM20.8334 16.6667C19.7283 16.6667 18.6685 17.1057 17.8871 17.8871C17.1057 18.6685 16.6667 19.7283 16.6667 20.8334V41.6667H83.3334V20.8334C83.3334 19.7283 82.8944 18.6685 82.113 17.8871C81.3316 17.1057 80.2718 16.6667 79.1667 16.6667H20.8334ZM16.6667 50V79.1667C16.6667 80.2718 17.1057 81.3316 17.8871 82.113C18.6685 82.8944 19.7283 83.3334 20.8334 83.3334H79.1667C80.2718 83.3334 81.3316 82.8944 82.113 82.113C82.8944 81.3316 83.3334 80.2718 83.3334 79.1667V50H16.6667ZM58.3334 54.1667C59.4384 54.1669 60.498 54.6061 61.2792 55.3875L77.9459 72.0542C78.7049 72.84 79.1248 73.8926 79.1154 74.985C79.1059 76.0775 78.6677 77.1226 77.8951 77.8951C77.1226 78.6677 76.0775 79.1059 74.985 79.1154C73.8926 79.1248 72.84 78.7049 72.0542 77.9459L58.3334 64.225L48.7792 73.7792L44.6125 77.9459C43.8267 78.7049 42.7742 79.1248 41.6817 79.1154C40.5892 79.1059 39.5442 78.6677 38.7716 77.8951C37.9991 77.1226 37.5609 76.0775 37.5514 74.985C37.5419 73.8926 37.9619 72.84 38.7209 72.0542L39.9417 70.8334L37.5 68.3917L27.9459 77.9459C27.16 78.7049 26.1075 79.1248 25.015 79.1154C23.9226 79.1059 22.8775 78.6677 22.105 77.8951C21.3324 77.1226 20.8942 76.0775 20.8847 74.985C20.8752 73.8926 21.2952 72.84 22.0542 72.0542L34.5542 59.5542C35.3356 58.7731 36.3952 58.3343 37.5 58.3343C38.6049 58.3343 39.6645 58.7731 40.4459 59.5542L45.8334 64.9417L55.3875 55.3875C56.1688 54.6061 57.2284 54.1669 58.3334 54.1667ZM45.8334 29.1667C45.8334 28.0616 46.2724 27.0018 47.0538 26.2204C47.8352 25.439 48.895 25 50 25H70.8334C71.9384 25 72.9983 25.439 73.7797 26.2204C74.5611 27.0018 75 28.0616 75 29.1667C75 30.2718 74.5611 31.3316 73.7797 32.113C72.9983 32.8944 71.9384 33.3334 70.8334 33.3334H50C48.895 33.3334 47.8352 32.8944 47.0538 32.113C46.2724 31.3316 45.8334 30.2718 45.8334 29.1667ZM29.1667 36.4584C31.1006 36.4584 32.9552 35.6902 34.3227 34.3227C35.6902 32.9552 36.4584 31.1006 36.4584 29.1667C36.4584 27.2328 35.6902 25.3782 34.3227 24.0107C32.9552 22.6433 31.1006 21.875 29.1667 21.875C27.2328 21.875 25.3782 22.6433 24.0107 24.0107C22.6433 25.3782 21.875 27.2328 21.875 29.1667C21.875 31.1006 22.6433 32.9552 24.0107 34.3227C25.3782 35.6902 27.2328 36.4584 29.1667 36.4584Z" fill="#FF8303"/>
</svg>
