<svg width="100" height="103" viewBox="0 0 100 103" fill="none" xmlns="http://www.w3.org/2000/svg">
<path fill-rule="evenodd" clip-rule="evenodd" d="M12.5 0C9.18479 0 6.00537 2.30467 3.66116 6.40702C1.31696 10.5094 0 16.0733 0 21.8749L0 80.2081C0 86.0097 1.31696 91.5736 3.66116 95.676C6.00537 99.7783 9.18479 102.083 12.5 102.083H87.5C90.8152 102.083 93.9946 99.7783 96.3388 95.676C98.683 91.5736 100 86.0097 100 80.2081V21.8749C100 16.0733 98.683 10.5094 96.3388 6.40702C93.9946 2.30467 90.8152 0 87.5 0H12.5ZM8.33333 21.8749C8.33333 19.9411 8.77232 18.0864 9.55372 16.719C10.3351 15.3515 11.3949 14.5833 12.5 14.5833H87.5C88.6051 14.5833 89.6649 15.3515 90.4463 16.719C91.2277 18.0864 91.6667 19.9411 91.6667 21.8749V80.2081C91.6667 82.1419 91.2277 83.9966 90.4463 85.3641C89.6649 86.7315 88.6051 87.4997 87.5 87.4997H12.5C11.3949 87.4997 10.3351 86.7315 9.55372 85.3641C8.77232 83.9966 8.33333 82.1419 8.33333 80.2081V21.8749ZM33.3333 36.4582C33.3333 34.5244 32.8943 32.6697 32.1129 31.3022C31.3315 29.9348 30.2717 29.1666 29.1667 29.1666C28.0616 29.1666 27.0018 29.9348 26.2204 31.3022C25.439 32.6697 25 34.5244 25 36.4582V43.7499H20.8333C19.7283 43.7499 18.6685 44.5181 17.8871 45.8855C17.1057 47.253 16.6667 49.1076 16.6667 51.0415C16.6667 52.9754 17.1057 54.83 17.8871 56.1975C18.6685 57.5649 19.7283 58.3331 20.8333 58.3331H25V65.6248C25 67.5587 25.439 69.4133 26.2204 70.7808C27.0018 72.1482 28.0616 72.9164 29.1667 72.9164C30.2717 72.9164 31.3315 72.1482 32.1129 70.7808C32.8943 69.4133 33.3333 67.5587 33.3333 65.6248V58.3331H37.5C38.6051 58.3331 39.6649 57.5649 40.4463 56.1975C41.2277 54.83 41.6667 52.9754 41.6667 51.0415C41.6667 49.1076 41.2277 47.253 40.4463 45.8855C39.6649 44.5181 38.6051 43.7499 37.5 43.7499H33.3333V36.4582ZM66.6667 47.3957C66.6667 50.2965 66.0082 53.0785 64.8361 55.1296C63.664 57.1808 62.0743 58.3331 60.4167 58.3331C58.7591 58.3331 57.1693 57.1808 55.9972 55.1296C54.8251 53.0785 54.1667 50.2965 54.1667 47.3957C54.1667 44.4949 54.8251 41.7129 55.9972 39.6617C57.1693 37.6106 58.7591 36.4582 60.4167 36.4582C62.0743 36.4582 63.664 37.6106 64.8361 39.6617C66.0082 41.7129 66.6667 44.4949 66.6667 47.3957ZM77.0833 58.3331C78.7409 58.3331 80.3306 57.1808 81.5027 55.1296C82.6749 53.0785 83.3333 50.2965 83.3333 47.3957C83.3333 44.4949 82.6749 41.7129 81.5027 39.6617C80.3306 37.6106 78.7409 36.4582 77.0833 36.4582C75.4257 36.4582 73.836 37.6106 72.6639 39.6617C71.4918 41.7129 70.8333 44.4949 70.8333 47.3957C70.8333 50.2965 71.4918 53.0785 72.6639 55.1296C73.836 57.1808 75.4257 58.3331 77.0833 58.3331Z" fill="#FF8303"/>
</svg>
