<svg width="100" height="100" viewBox="0 0 100 100" fill="none" xmlns="http://www.w3.org/2000/svg">
<path fill-rule="evenodd" clip-rule="evenodd" d="M12.5 20.8334C9.18479 20.8334 6.00537 22.1503 3.66116 24.4945C1.31696 26.8387 0 30.0182 0 33.3334L0 66.6667C0 69.9819 1.31696 73.1613 3.66116 75.5055C6.00537 77.8498 9.18479 79.1667 12.5 79.1667H87.5C90.8152 79.1667 93.9946 77.8498 96.3388 75.5055C98.683 73.1613 100 69.9819 100 66.6667V33.3334C100 30.0182 98.683 26.8387 96.3388 24.4945C93.9946 22.1503 90.8152 20.8334 87.5 20.8334H12.5ZM8.33333 33.3334C8.33333 32.2283 8.77232 31.1685 9.55372 30.3871C10.3351 29.6057 11.3949 29.1667 12.5 29.1667H87.5C88.6051 29.1667 89.6649 29.6057 90.4463 30.3871C91.2277 31.1685 91.6667 32.2283 91.6667 33.3334V66.6667C91.6667 67.7718 91.2277 68.8316 90.4463 69.613C89.6649 70.3944 88.6051 70.8334 87.5 70.8334H12.5C11.3949 70.8334 10.3351 70.3944 9.55372 69.613C8.77232 68.8316 8.33333 67.7718 8.33333 66.6667V33.3334ZM33.3333 41.6667C33.3333 40.5616 32.8943 39.5018 32.1129 38.7204C31.3315 37.939 30.2717 37.5 29.1667 37.5C28.0616 37.5 27.0018 37.939 26.2204 38.7204C25.439 39.5018 25 40.5616 25 41.6667V45.8334H20.8333C19.7283 45.8334 18.6685 46.2724 17.8871 47.0538C17.1057 47.8352 16.6667 48.895 16.6667 50C16.6667 51.1051 17.1057 52.1649 17.8871 52.9463C18.6685 53.7277 19.7283 54.1667 20.8333 54.1667H25V58.3334C25 59.4384 25.439 60.4983 26.2204 61.2797C27.0018 62.0611 28.0616 62.5 29.1667 62.5C30.2717 62.5 31.3315 62.0611 32.1129 61.2797C32.8943 60.4983 33.3333 59.4384 33.3333 58.3334V54.1667H37.5C38.6051 54.1667 39.6649 53.7277 40.4463 52.9463C41.2277 52.1649 41.6667 51.1051 41.6667 50C41.6667 48.895 41.2277 47.8352 40.4463 47.0538C39.6649 46.2724 38.6051 45.8334 37.5 45.8334H33.3333V41.6667ZM66.6667 47.9167C66.6667 49.5743 66.0082 51.164 64.8361 52.3361C63.664 53.5082 62.0743 54.1667 60.4167 54.1667C58.7591 54.1667 57.1693 53.5082 55.9972 52.3361C54.8251 51.164 54.1667 49.5743 54.1667 47.9167C54.1667 46.2591 54.8251 44.6694 55.9972 43.4973C57.1693 42.3252 58.7591 41.6667 60.4167 41.6667C62.0743 41.6667 63.664 42.3252 64.8361 43.4973C66.0082 44.6694 66.6667 46.2591 66.6667 47.9167ZM77.0833 54.1667C78.7409 54.1667 80.3306 53.5082 81.5027 52.3361C82.6748 51.164 83.3333 49.5743 83.3333 47.9167C83.3333 46.2591 82.6748 44.6694 81.5027 43.4973C80.3306 42.3252 78.7409 41.6667 77.0833 41.6667C75.4257 41.6667 73.836 42.3252 72.6639 43.4973C71.4918 44.6694 70.8333 46.2591 70.8333 47.9167C70.8333 49.5743 71.4918 51.164 72.6639 52.3361C73.836 53.5082 75.4257 54.1667 77.0833 54.1667Z" fill="#FF8303"/>
</svg>
