<svg width="100" height="100" viewBox="0 0 100 100" fill="none" xmlns="http://www.w3.org/2000/svg">
<path fill-rule="evenodd" clip-rule="evenodd" d="M24.9998 16.6667C24.9998 15.5617 25.4388 14.5019 26.2202 13.7205C27.0016 12.9391 28.0614 12.5001 29.1665 12.5001H70.8332C71.9382 12.5001 72.998 12.9391 73.7794 13.7205C74.5608 14.5019 74.9998 15.5617 74.9998 16.6667V75.0001C74.9998 76.1051 74.5608 77.165 73.7794 77.9464C72.998 78.7278 71.9382 79.1667 70.8332 79.1667H29.1665C28.0614 79.1667 27.0016 78.7278 26.2202 77.9464C25.4388 77.165 24.9998 76.1051 24.9998 75.0001V16.6667ZM29.1665 4.16675C25.8513 4.16675 22.6719 5.48371 20.3277 7.82791C17.9835 10.1721 16.6665 13.3515 16.6665 16.6667V83.3334C16.6665 86.6486 17.9835 89.828 20.3277 92.1722C22.6719 94.5164 25.8513 95.8334 29.1665 95.8334H70.8332C74.1484 95.8334 77.3278 94.5164 79.672 92.1722C82.0162 89.828 83.3332 86.6486 83.3332 83.3334V16.6667C83.3332 13.3515 82.0162 10.1721 79.672 7.82791C77.3278 5.48371 74.1484 4.16675 70.8332 4.16675H29.1665ZM49.9998 91.6667C51.1049 91.6667 52.1647 91.2278 52.9461 90.4464C53.7275 89.665 54.1665 88.6051 54.1665 87.5001C54.1665 86.395 53.7275 85.3352 52.9461 84.5538C52.1647 83.7724 51.1049 83.3334 49.9998 83.3334C48.8948 83.3334 47.835 83.7724 47.0536 84.5538C46.2722 85.3352 45.8332 86.395 45.8332 87.5001C45.8332 88.6051 46.2722 89.665 47.0536 90.4464C47.835 91.2278 48.8948 91.6667 49.9998 91.6667Z" fill="#FF8303"/>
</svg>
