<svg width="50" height="50" viewBox="0 0 50 50" fill="none" xmlns="http://www.w3.org/2000/svg">
<path fill-rule="evenodd" clip-rule="evenodd" d="M12.5001 4.16666C10.2899 4.16666 8.17033 5.04463 6.60753 6.60743C5.04472 8.17024 4.16675 10.2899 4.16675 12.5V37.5C4.16675 39.7101 5.04472 41.8297 6.60753 43.3925C8.17033 44.9554 10.2899 45.8333 12.5001 45.8333H37.5001C39.7102 45.8333 41.8298 44.9554 43.3926 43.3925C44.9554 41.8297 45.8334 39.7101 45.8334 37.5V12.5C45.8334 10.2899 44.9554 8.17024 43.3926 6.60743C41.8298 5.04463 39.7102 4.16666 37.5001 4.16666H12.5001ZM8.33342 12.5C8.33342 11.3949 8.7724 10.3351 9.5538 9.55371C10.3352 8.77231 11.395 8.33332 12.5001 8.33332H37.5001C38.6052 8.33332 39.665 8.77231 40.4464 9.55371C41.2278 10.3351 41.6668 11.3949 41.6668 12.5V37.5C41.6668 38.6051 41.2278 39.6649 40.4464 40.4463C39.665 41.2277 38.6052 41.6667 37.5001 41.6667H12.5001C11.395 41.6667 10.3352 41.2277 9.5538 40.4463C8.7724 39.6649 8.33342 38.6051 8.33342 37.5V12.5ZM18.7501 22.9167C18.7501 22.3641 18.5306 21.8342 18.1399 21.4435C17.7492 21.0528 17.2193 20.8333 16.6667 20.8333C16.1142 20.8333 15.5843 21.0528 15.1936 21.4435C14.8029 21.8342 14.5834 22.3641 14.5834 22.9167V35.4167C14.5834 35.9692 14.8029 36.4991 15.1936 36.8898C15.5843 37.2805 16.1142 37.5 16.6667 37.5C17.2193 37.5 17.7492 37.2805 18.1399 36.8898C18.5306 36.4991 18.7501 35.9692 18.7501 35.4167V22.9167ZM19.7917 15.625C19.7917 16.4538 19.4625 17.2486 18.8765 17.8347C18.2904 18.4208 17.4956 18.75 16.6667 18.75C15.8379 18.75 15.0431 18.4208 14.457 17.8347C13.871 17.2486 13.5417 16.4538 13.5417 15.625C13.5417 14.7962 13.871 14.0013 14.457 13.4153C15.0431 12.8292 15.8379 12.5 16.6667 12.5C17.4956 12.5 18.2904 12.8292 18.8765 13.4153C19.4625 14.0013 19.7917 14.7962 19.7917 15.625ZM25.0001 20.8333C25.7084 20.8333 26.3334 21.1875 26.7084 21.725C27.7822 21.1398 28.9855 20.8332 30.2084 20.8333C34.7084 20.8333 37.5001 24.8458 37.5001 28.2729V35.4167C37.5001 35.9692 37.2806 36.4991 36.8899 36.8898C36.4992 37.2805 35.9693 37.5 35.4167 37.5C34.8642 37.5 34.3343 37.2805 33.9436 36.8898C33.5529 36.4991 33.3334 35.9692 33.3334 35.4167V28.2708C33.3334 26.6708 31.9584 24.9979 30.2084 24.9979C29.1168 24.9979 27.9105 25.5917 27.0834 27.0042V35.4167C27.0834 35.9692 26.8639 36.4991 26.4732 36.8898C26.0825 37.2805 25.5526 37.5 25.0001 37.5C24.4475 37.5 23.9176 37.2805 23.5269 36.8898C23.1362 36.4991 22.9167 35.9692 22.9167 35.4167V22.9167C22.9167 22.3641 23.1362 21.8342 23.5269 21.4435C23.9176 21.0528 24.4475 20.8333 25.0001 20.8333Z" fill="black"/>
</svg>
