<svg width="100" height="100" viewBox="0 0 100 100" fill="none" xmlns="http://www.w3.org/2000/svg">
<path fill-rule="evenodd" clip-rule="evenodd" d="M12.5 16.6667C12.5 15.5616 12.939 14.5018 13.7204 13.7204C14.5018 12.939 15.5616 12.5 16.6667 12.5H83.3333C84.4384 12.5 85.4982 12.939 86.2796 13.7204C87.061 14.5018 87.5 15.5616 87.5 16.6667V83.3333C87.5 84.4384 87.061 85.4982 86.2796 86.2796C85.4982 87.061 84.4384 87.5 83.3333 87.5H16.6667C15.5616 87.5 14.5018 87.061 13.7204 86.2796C12.939 85.4982 12.5 84.4384 12.5 83.3333V16.6667ZM20.8333 20.8333V45.8333H45.8333V20.8333H20.8333ZM54.1667 20.8333V45.8333H79.1667V20.8333H54.1667ZM79.1667 54.1667H54.1667V79.1667H79.1667V54.1667ZM45.8333 79.1667V54.1667H20.8333V79.1667H45.8333Z" fill="#FF8303"/>
</svg>
