<svg width="100" height="100" viewBox="0 0 50 50" fill="none" xmlns="http://www.w3.org/2000/svg">
<path fill-rule="evenodd" clip-rule="evenodd" d="M30.9355 11.7875C29.9837 11.7871 29.0437 11.998 28.1834 12.405C27.3231 12.812 26.5638 13.405 25.9605 14.1411C25.3571 14.8772 24.9247 15.738 24.6945 16.6615C24.4643 17.585 24.442 18.5481 24.6292 19.4813C24.6937 19.8046 24.6805 20.1386 24.5907 20.4558C24.5009 20.7731 24.3371 21.0645 24.1128 21.3061C23.8885 21.5477 23.61 21.7326 23.3003 21.8456C22.9906 21.9587 22.6585 21.9966 22.3313 21.9562C17.8516 21.406 13.6286 19.5645 10.1771 16.6563C10.2417 17.9104 10.6771 19.2437 11.6209 20.6396L13.0355 22.7313L10.7125 23.7208L10.2646 23.9125C10.598 24.2937 10.998 24.6833 11.4459 25.0688C12.0447 25.5813 12.6781 26.0518 13.3417 26.4771L13.3646 26.4917H13.3667L16.5917 28.4479L13.2167 30.1354C13.05 30.2188 12.8834 30.2937 12.7167 30.3604C13.4424 30.9634 14.2419 31.4717 15.0959 31.8729L17.9917 33.2417L15.5667 35.3333C14.2438 36.475 12.9125 37.3271 11.1855 37.7771C13.8343 39.188 16.7905 39.923 19.7917 39.9167C29.8042 39.9167 37.8667 31.9271 37.8667 22.1375V21.0542L38.7521 20.4313C40.1355 19.4604 41.1125 18.1479 41.8125 16.6458H37.3125L36.7459 15.4583C36.2241 14.3597 35.4013 13.4317 34.3732 12.7819C33.3451 12.1321 32.1538 11.7873 30.9375 11.7875H30.9355ZM7.43545 26.9958C7.23886 27.221 7.09301 27.4858 7.00782 27.7723C6.92262 28.0588 6.90007 28.3603 6.9417 28.6562C7.17712 30.325 8.17503 31.7625 9.2792 32.8604C9.5792 33.1583 9.90003 33.4437 10.2375 33.7167L10.0813 33.7583C9.0792 34.0083 7.72712 34.0604 5.47503 33.8417C5.04974 33.7999 4.6219 33.89 4.24952 34.0996C3.87714 34.3093 3.57824 34.6284 3.39334 35.0136C3.20844 35.3989 3.14649 35.8317 3.21589 36.2534C3.28528 36.675 3.48267 37.0651 3.78128 37.3708C5.86623 39.5019 8.3569 41.1938 11.1063 42.3467C13.8558 43.4996 16.8083 44.0901 19.7896 44.0833C31.6917 44.0833 41.4542 34.8417 42.0063 23.1792C44.6938 20.9229 46.0375 17.8667 46.7625 15.0896C46.8431 14.7814 46.852 14.4587 46.7884 14.1466C46.7248 13.8344 46.5904 13.541 46.3956 13.2888C46.2009 13.0367 45.9509 12.8326 45.6649 12.6923C45.3789 12.5519 45.0645 12.479 44.7459 12.4792H39.8438C38.6447 10.6173 36.8924 9.178 34.8331 8.3634C32.7739 7.54881 30.5111 7.39989 28.3628 7.93759C26.2146 8.47529 24.2888 9.67258 22.856 11.3612C21.4233 13.0498 20.5557 15.1449 20.375 17.3521C16.5347 16.3524 13.0986 14.1871 10.5396 11.1542C10.313 10.8862 10.0223 10.6799 9.69466 10.5542C9.36697 10.4286 9.01286 10.3878 8.66519 10.4356C8.31751 10.4834 7.98755 10.6183 7.70592 10.8276C7.42429 11.037 7.20011 11.3142 7.0542 11.6333C5.7917 14.3875 5.55003 17.5625 6.95837 20.7917L6.47087 21C6.00436 21.1988 5.62636 21.5609 5.40775 22.0185C5.18914 22.476 5.14491 22.9976 5.28337 23.4854C5.67087 24.8438 6.5417 26.0438 7.43337 26.9958H7.43545Z" fill="black"/>
</svg>
